# xmcd CD database file
#
# Track frame offsets:
#	150
#	12649
#	26812
#	40924
#	52635
#	67082
#	81063
#	94179
#	107680
#
# Disc length: 1532 seconds
#
# Revision: 0
# Processed by: cddbd v1.5.2PL0 Copyright (c) Steve Scherf et al.
# Submitted via: CDex 1.81
#
DISCID=6e05fa09
DTITLE=Bart Budwig - The Moon and Other Things
DYEAR=2016
DGENRE=Country
TTITLE0=Damn Good Start
TTITLE1=Cigarettes From Grace
TTITLE2=Santa Barbara
TTITLE3=High and Low and In-Between
TTITLE4=Wyoming
TTITLE5=Saturday Slow, Sunday Lazy
TTITLE6=Sane In Colorado
TTITLE7=Sarah Roll Down My Window
TTITLE8=Sleep Elena
EXTD=YEAR: 2016
EXTT0=
EXTT1=
EXTT2=
EXTT3=
EXTT4=
EXTT5=
EXTT6=
EXTT7=
EXTT8=
PLAYORDER=
